<mxfile host="app.diagrams.net" agent="Mozilla/5.0 (Windows NT 10.0; Win64; x64) AppleWebKit/537.36 (KHTML, like Gecko) Chrome/136.0.0.0 Safari/537.36" version="26.2.14">
  <diagram name="Page-1" id="xLZAuXlBD0FO_rs4_aRC">
    <mxGraphModel dx="872" dy="471" grid="1" gridSize="10" guides="1" tooltips="1" connect="1" arrows="1" fold="1" page="1" pageScale="1" pageWidth="1100" pageHeight="850" math="0" shadow="0">
      <root>
        <mxCell id="0" />
        <mxCell id="1" parent="0" />
        <mxCell id="N8CgFHCu0NLh-hlxmTAB-14" style="edgeStyle=orthogonalEdgeStyle;rounded=0;orthogonalLoop=1;jettySize=auto;html=1;exitX=0.75;exitY=1;exitDx=0;exitDy=0;entryX=0;entryY=0.25;entryDx=0;entryDy=0;" edge="1" parent="1" source="N8CgFHCu0NLh-hlxmTAB-2" target="N8CgFHCu0NLh-hlxmTAB-11">
          <mxGeometry relative="1" as="geometry" />
        </mxCell>
        <mxCell id="N8CgFHCu0NLh-hlxmTAB-20" value="Actuators&lt;div&gt;Management&lt;/div&gt;" style="edgeLabel;html=1;align=center;verticalAlign=middle;resizable=0;points=[];" vertex="1" connectable="0" parent="N8CgFHCu0NLh-hlxmTAB-14">
          <mxGeometry x="-0.3735" y="1" relative="1" as="geometry">
            <mxPoint as="offset" />
          </mxGeometry>
        </mxCell>
        <mxCell id="N8CgFHCu0NLh-hlxmTAB-15" style="edgeStyle=orthogonalEdgeStyle;rounded=0;orthogonalLoop=1;jettySize=auto;html=1;exitX=0.25;exitY=1;exitDx=0;exitDy=0;entryX=0;entryY=0.75;entryDx=0;entryDy=0;" edge="1" parent="1" source="N8CgFHCu0NLh-hlxmTAB-2" target="N8CgFHCu0NLh-hlxmTAB-11">
          <mxGeometry relative="1" as="geometry" />
        </mxCell>
        <mxCell id="N8CgFHCu0NLh-hlxmTAB-21" value="Super Admin&lt;div&gt;Information&lt;/div&gt;" style="edgeLabel;html=1;align=center;verticalAlign=middle;resizable=0;points=[];" vertex="1" connectable="0" parent="N8CgFHCu0NLh-hlxmTAB-15">
          <mxGeometry x="0.4324" y="1" relative="1" as="geometry">
            <mxPoint as="offset" />
          </mxGeometry>
        </mxCell>
        <mxCell id="N8CgFHCu0NLh-hlxmTAB-2" value="Super Admin" style="rounded=0;whiteSpace=wrap;html=1;" vertex="1" parent="1">
          <mxGeometry x="80" y="50" width="120" height="60" as="geometry" />
        </mxCell>
        <mxCell id="N8CgFHCu0NLh-hlxmTAB-16" style="edgeStyle=orthogonalEdgeStyle;rounded=0;orthogonalLoop=1;jettySize=auto;html=1;exitX=1;exitY=0.5;exitDx=0;exitDy=0;entryX=1;entryY=0.5;entryDx=0;entryDy=0;" edge="1" parent="1" source="N8CgFHCu0NLh-hlxmTAB-3" target="N8CgFHCu0NLh-hlxmTAB-11">
          <mxGeometry relative="1" as="geometry">
            <Array as="points">
              <mxPoint x="830" y="80" />
              <mxPoint x="830" y="370" />
            </Array>
          </mxGeometry>
        </mxCell>
        <mxCell id="N8CgFHCu0NLh-hlxmTAB-17" value="Admin Data Information" style="edgeLabel;html=1;align=center;verticalAlign=middle;resizable=0;points=[];" vertex="1" connectable="0" parent="N8CgFHCu0NLh-hlxmTAB-16">
          <mxGeometry x="0.5212" y="-1" relative="1" as="geometry">
            <mxPoint as="offset" />
          </mxGeometry>
        </mxCell>
        <mxCell id="N8CgFHCu0NLh-hlxmTAB-3" value="&lt;font style=&quot;font-size: 13px;&quot;&gt;Admin&lt;/font&gt;" style="rounded=0;whiteSpace=wrap;html=1;" vertex="1" parent="1">
          <mxGeometry x="650" y="50" width="120" height="60" as="geometry" />
        </mxCell>
        <mxCell id="N8CgFHCu0NLh-hlxmTAB-12" style="edgeStyle=orthogonalEdgeStyle;rounded=0;orthogonalLoop=1;jettySize=auto;html=1;exitX=0.75;exitY=0;exitDx=0;exitDy=0;entryX=0;entryY=0.5;entryDx=0;entryDy=0;" edge="1" parent="1" source="N8CgFHCu0NLh-hlxmTAB-10" target="N8CgFHCu0NLh-hlxmTAB-3">
          <mxGeometry relative="1" as="geometry">
            <Array as="points">
              <mxPoint x="500" y="300" />
              <mxPoint x="500" y="80" />
            </Array>
          </mxGeometry>
        </mxCell>
        <mxCell id="N8CgFHCu0NLh-hlxmTAB-18" value="Reports and&lt;div&gt;AnalyticsData&lt;/div&gt;" style="edgeLabel;html=1;align=center;verticalAlign=middle;resizable=0;points=[];" vertex="1" connectable="0" parent="N8CgFHCu0NLh-hlxmTAB-12">
          <mxGeometry x="-0.4395" y="1" relative="1" as="geometry">
            <mxPoint x="1" as="offset" />
          </mxGeometry>
        </mxCell>
        <mxCell id="N8CgFHCu0NLh-hlxmTAB-13" style="edgeStyle=orthogonalEdgeStyle;rounded=0;orthogonalLoop=1;jettySize=auto;html=1;exitX=0.25;exitY=0;exitDx=0;exitDy=0;entryX=1;entryY=0.5;entryDx=0;entryDy=0;" edge="1" parent="1" source="N8CgFHCu0NLh-hlxmTAB-10" target="N8CgFHCu0NLh-hlxmTAB-2">
          <mxGeometry relative="1" as="geometry">
            <Array as="points">
              <mxPoint x="370" y="300" />
              <mxPoint x="370" y="80" />
            </Array>
          </mxGeometry>
        </mxCell>
        <mxCell id="N8CgFHCu0NLh-hlxmTAB-19" value="Reports and&lt;div&gt;Analytics Data&lt;/div&gt;" style="edgeLabel;html=1;align=center;verticalAlign=middle;resizable=0;points=[];" vertex="1" connectable="0" parent="N8CgFHCu0NLh-hlxmTAB-13">
          <mxGeometry x="-0.4618" y="2" relative="1" as="geometry">
            <mxPoint x="1" as="offset" />
          </mxGeometry>
        </mxCell>
        <mxCell id="N8CgFHCu0NLh-hlxmTAB-10" value="0" style="swimlane;childLayout=stackLayout;horizontal=1;startSize=20;horizontalStack=0;rounded=1;fontSize=14;fontStyle=0;strokeWidth=2;resizeParent=0;resizeLast=1;shadow=0;dashed=0;align=center;arcSize=4;whiteSpace=wrap;html=1;" vertex="1" parent="1">
          <mxGeometry x="350" y="300" width="170" height="120" as="geometry" />
        </mxCell>
        <mxCell id="N8CgFHCu0NLh-hlxmTAB-11" value="&lt;div&gt;&lt;span style=&quot;&quot;&gt;&lt;font style=&quot;font-size: 14px;&quot;&gt;&lt;br&gt;&lt;/font&gt;&lt;/span&gt;&lt;/div&gt;&lt;span style=&quot;&quot;&gt;&lt;font style=&quot;font-size: 14px;&quot;&gt;&lt;div&gt;&lt;span style=&quot;background-color: transparent; color: light-dark(rgb(0, 0, 0), rgb(255, 255, 255));&quot;&gt;Hydro Atlantis&lt;/span&gt;&lt;/div&gt;&lt;/font&gt;&lt;/span&gt;&lt;div style=&quot;&quot;&gt;&lt;font style=&quot;font-size: 14px;&quot;&gt;Website Application&lt;/font&gt;&lt;/div&gt;" style="align=center;strokeColor=none;fillColor=none;spacingLeft=4;spacingRight=4;fontSize=12;verticalAlign=top;resizable=0;rotatable=0;part=1;html=1;whiteSpace=wrap;" vertex="1" parent="N8CgFHCu0NLh-hlxmTAB-10">
          <mxGeometry y="20" width="170" height="100" as="geometry" />
        </mxCell>
      </root>
    </mxGraphModel>
  </diagram>
</mxfile>
